<svg width="588" height="112" viewBox="0 0 588 112" fill="none" xmlns="http://www.w3.org/2000/svg">
<path d="M113.508 63.296V56.192H123.94C125.305 56.192 126.543 55.9147 127.652 55.36C128.761 54.8053 129.636 54.016 130.276 52.992C130.916 51.9253 131.236 50.6453 131.236 49.152C131.236 47.7013 130.916 46.4427 130.276 45.376C129.636 44.3093 128.761 43.4987 127.652 42.944C126.543 42.3893 125.305 42.112 123.94 42.112H113.508V35.008H124.836C127.695 35.008 130.255 35.584 132.516 36.736C134.82 37.888 136.633 39.5307 137.956 41.664C139.279 43.7547 139.94 46.2507 139.94 49.152C139.94 52.0533 139.279 54.5707 137.956 56.704C136.633 58.7947 134.82 60.416 132.516 61.568C130.255 62.72 127.695 63.296 124.836 63.296H113.508ZM107.108 80V35.008H115.812V80H107.108ZM157.14 80.64C154.324 80.64 151.785 79.936 149.524 78.528C147.263 77.12 145.492 75.2 144.212 72.768C142.932 70.336 142.292 67.6053 142.292 64.576C142.292 61.504 142.932 58.752 144.212 56.32C145.492 53.888 147.263 51.968 149.524 50.56C151.785 49.152 154.324 48.448 157.14 48.448C159.359 48.448 161.343 48.896 163.092 49.792C164.841 50.688 166.228 51.9467 167.252 53.568C168.319 55.1467 168.895 56.9387 168.98 58.944V70.08C168.895 72.128 168.319 73.9413 167.252 75.52C166.228 77.0987 164.841 78.3573 163.092 79.296C161.343 80.192 159.359 80.64 157.14 80.64ZM158.676 72.896C161.023 72.896 162.921 72.128 164.372 70.592C165.823 69.0133 166.548 66.9867 166.548 64.512C166.548 62.8907 166.207 61.4613 165.524 60.224C164.884 58.944 163.967 57.9627 162.772 57.28C161.62 56.5547 160.255 56.192 158.676 56.192C157.14 56.192 155.775 56.5547 154.58 57.28C153.428 57.9627 152.511 58.944 151.828 60.224C151.188 61.4613 150.868 62.8907 150.868 64.512C150.868 66.176 151.188 67.648 151.828 68.928C152.511 70.1653 153.428 71.1467 154.58 71.872C155.775 72.5547 157.14 72.896 158.676 72.896ZM166.1 80V71.68L167.444 64.128L166.1 56.704V49.088H174.42V80H166.1ZM198.989 80.64C196.77 80.64 194.765 80.192 192.973 79.296C191.181 78.3573 189.752 77.0987 188.685 75.52C187.618 73.9413 187.042 72.128 186.957 70.08V59.136C187.042 57.088 187.618 55.2747 188.685 53.696C189.794 52.0747 191.224 50.7947 192.973 49.856C194.765 48.9173 196.77 48.448 198.989 48.448C201.848 48.448 204.408 49.152 206.669 50.56C208.93 51.968 210.701 53.888 211.981 56.32C213.304 58.752 213.965 61.504 213.965 64.576C213.965 67.6053 213.304 70.336 211.981 72.768C210.701 75.2 208.93 77.12 206.669 78.528C204.408 79.936 201.848 80.64 198.989 80.64ZM197.517 72.896C199.053 72.896 200.418 72.5547 201.613 71.872C202.808 71.1467 203.725 70.1653 204.365 68.928C205.048 67.648 205.389 66.176 205.389 64.512C205.389 62.8907 205.048 61.4613 204.365 60.224C203.725 58.944 202.808 57.9627 201.613 57.28C200.418 56.5547 199.053 56.192 197.517 56.192C196.024 56.192 194.68 56.5547 193.485 57.28C192.29 57.9627 191.352 58.944 190.669 60.224C190.029 61.4613 189.709 62.8907 189.709 64.512C189.709 66.176 190.029 67.648 190.669 68.928C191.352 70.1653 192.269 71.1467 193.421 71.872C194.616 72.5547 195.981 72.896 197.517 72.896ZM181.837 92.928V49.088H190.221V57.216L188.813 64.704L190.157 72.192V92.928H181.837ZM234.246 80.64C231.003 80.64 228.123 79.9573 225.606 78.592C223.089 77.184 221.083 75.264 219.59 72.832C218.139 70.4 217.414 67.6267 217.414 64.512C217.414 61.44 218.118 58.7093 219.526 56.32C220.977 53.888 222.939 51.968 225.414 50.56C227.889 49.1093 230.641 48.384 233.67 48.384C236.657 48.384 239.281 49.0667 241.542 50.432C243.846 51.7547 245.638 53.5893 246.918 55.936C248.241 58.24 248.902 60.864 248.902 63.808C248.902 64.3627 248.859 64.9387 248.774 65.536C248.731 66.0907 248.625 66.7307 248.454 67.456L222.47 67.52V61.248L244.55 61.184L241.158 63.808C241.073 61.9733 240.731 60.4373 240.134 59.2C239.579 57.9627 238.747 57.024 237.638 56.384C236.571 55.7013 235.249 55.36 233.67 55.36C232.006 55.36 230.555 55.744 229.318 56.512C228.081 57.2373 227.121 58.2827 226.438 59.648C225.798 60.9707 225.478 62.5493 225.478 64.384C225.478 66.2613 225.819 67.904 226.502 69.312C227.227 70.6773 228.251 71.744 229.574 72.512C230.897 73.2373 232.433 73.6 234.182 73.6C235.761 73.6 237.19 73.344 238.47 72.832C239.75 72.2773 240.859 71.4667 241.798 70.4L246.726 75.328C245.233 77.0773 243.398 78.4 241.222 79.296C239.089 80.192 236.763 80.64 234.246 80.64ZM254.087 80V33.728H262.471V80H254.087ZM284.683 80.64C281.441 80.64 278.561 79.9573 276.043 78.592C273.526 77.184 271.521 75.264 270.027 72.832C268.577 70.4 267.851 67.6267 267.851 64.512C267.851 61.44 268.555 58.7093 269.963 56.32C271.414 53.888 273.377 51.968 275.851 50.56C278.326 49.1093 281.078 48.384 284.107 48.384C287.094 48.384 289.718 49.0667 291.979 50.432C294.283 51.7547 296.075 53.5893 297.355 55.936C298.678 58.24 299.339 60.864 299.339 63.808C299.339 64.3627 299.297 64.9387 299.211 65.536C299.169 66.0907 299.062 66.7307 298.891 67.456L272.907 67.52V61.248L294.987 61.184L291.595 63.808C291.51 61.9733 291.169 60.4373 290.571 59.2C290.017 57.9627 289.185 57.024 288.075 56.384C287.009 55.7013 285.686 55.36 284.107 55.36C282.443 55.36 280.993 55.744 279.755 56.512C278.518 57.2373 277.558 58.2827 276.875 59.648C276.235 60.9707 275.915 62.5493 275.915 64.384C275.915 66.2613 276.257 67.904 276.939 69.312C277.665 70.6773 278.689 71.744 280.011 72.512C281.334 73.2373 282.87 73.6 284.619 73.6C286.198 73.6 287.627 73.344 288.907 72.832C290.187 72.2773 291.297 71.4667 292.235 70.4L297.163 75.328C295.67 77.0773 293.835 78.4 291.659 79.296C289.526 80.192 287.201 80.64 284.683 80.64ZM304.524 80V49.088H312.908V80H304.524ZM312.908 62.912L309.644 60.736C310.028 56.9387 311.138 53.952 312.972 51.776C314.807 49.5573 317.452 48.448 320.908 48.448C322.402 48.448 323.746 48.704 324.94 49.216C326.135 49.6853 327.223 50.4747 328.204 51.584L322.956 57.6C322.487 57.088 321.911 56.704 321.228 56.448C320.588 56.192 319.842 56.064 318.988 56.064C317.196 56.064 315.724 56.64 314.572 57.792C313.463 58.9013 312.908 60.608 312.908 62.912ZM332.274 80V49.088H340.658V80H332.274ZM332.338 45.12L329.138 41.152L338.354 31.168L343.73 37.696L332.338 45.12ZM361.015 80.64C358.199 80.64 355.66 79.936 353.399 78.528C351.138 77.12 349.367 75.2 348.087 72.768C346.807 70.336 346.167 67.6053 346.167 64.576C346.167 61.504 346.807 58.752 348.087 56.32C349.367 53.888 351.138 51.968 353.399 50.56C355.66 49.152 358.199 48.448 361.015 48.448C363.234 48.448 365.218 48.896 366.967 49.792C368.716 50.688 370.103 51.9467 371.127 53.568C372.194 55.1467 372.77 56.9387 372.855 58.944V70.08C372.77 72.128 372.194 73.9413 371.127 75.52C370.103 77.0987 368.716 78.3573 366.967 79.296C365.218 80.192 363.234 80.64 361.015 80.64ZM362.551 72.896C364.898 72.896 366.796 72.128 368.247 70.592C369.698 69.0133 370.423 66.9867 370.423 64.512C370.423 62.8907 370.082 61.4613 369.399 60.224C368.759 58.944 367.842 57.9627 366.647 57.28C365.495 56.5547 364.13 56.192 362.551 56.192C361.015 56.192 359.65 56.5547 358.455 57.28C357.303 57.9627 356.386 58.944 355.703 60.224C355.063 61.4613 354.743 62.8907 354.743 64.512C354.743 66.176 355.063 67.648 355.703 68.928C356.386 70.1653 357.303 71.1467 358.455 71.872C359.65 72.5547 361.015 72.896 362.551 72.896ZM369.975 80V71.68L371.319 64.128L369.975 56.704V49.088H378.295V80H369.975ZM399.108 80V35.008H407.812V80H399.108ZM405.508 80V72.32H430.404V80H405.508ZM405.508 60.736V53.312H428.164V60.736H405.508ZM405.508 42.688V35.008H430.084V42.688H405.508ZM437.608 80V35.008H446.312V80H437.608ZM444.008 80V72.256H466.92V80H444.008ZM491.57 61.184V54.4H502.002C504.136 54.4 505.778 53.8667 506.93 52.8C508.125 51.6907 508.722 50.176 508.722 48.256C508.722 46.5067 508.125 45.056 506.93 43.904C505.778 42.7093 504.136 42.112 502.002 42.112H491.57V35.008H502.77C505.672 35.008 508.21 35.584 510.386 36.736C512.605 37.8453 514.312 39.3813 515.506 41.344C516.744 43.3067 517.362 45.568 517.362 48.128C517.362 50.7733 516.744 53.0773 515.506 55.04C514.312 56.96 512.605 58.4747 510.386 59.584C508.168 60.6507 505.586 61.184 502.642 61.184H491.57ZM485.17 80V35.008H493.874V80H485.17ZM509.746 80L494.898 60.544L502.898 58.048L520.306 80H509.746ZM538.246 80.64C535.003 80.64 532.123 79.9573 529.606 78.592C527.089 77.184 525.083 75.264 523.59 72.832C522.139 70.4 521.414 67.6267 521.414 64.512C521.414 61.44 522.118 58.7093 523.526 56.32C524.977 53.888 526.939 51.968 529.414 50.56C531.889 49.1093 534.641 48.384 537.67 48.384C540.657 48.384 543.281 49.0667 545.542 50.432C547.846 51.7547 549.638 53.5893 550.918 55.936C552.241 58.24 552.902 60.864 552.902 63.808C552.902 64.3627 552.859 64.9387 552.774 65.536C552.731 66.0907 552.625 66.7307 552.454 67.456L526.47 67.52V61.248L548.55 61.184L545.158 63.808C545.073 61.9733 544.731 60.4373 544.134 59.2C543.579 57.9627 542.747 57.024 541.638 56.384C540.571 55.7013 539.249 55.36 537.67 55.36C536.006 55.36 534.555 55.744 533.318 56.512C532.081 57.2373 531.121 58.2827 530.438 59.648C529.798 60.9707 529.478 62.5493 529.478 64.384C529.478 66.2613 529.819 67.904 530.502 69.312C531.227 70.6773 532.251 71.744 533.574 72.512C534.897 73.2373 536.433 73.6 538.182 73.6C539.761 73.6 541.19 73.344 542.47 72.832C543.75 72.2773 544.859 71.4667 545.798 70.4L550.726 75.328C549.233 77.0773 547.398 78.4 545.222 79.296C543.089 80.192 540.763 80.64 538.246 80.64ZM567.315 80.256L554.387 49.088H563.475L572.051 72.896H568.979L577.875 49.088H587.027L573.267 80.192L567.315 80.256ZM558.739 92.928L568.147 73.024L573.267 80.192L567.635 92.928H558.739Z" fill="#1C1C1E"/>
<path d="M14.3391 38.5254C17.2086 37.0647 20.2191 35.9845 23.31 35.3066C27.6362 43.9222 32.4427 53.3415 35.9778 59.8573C35.7906 59.5409 35.6295 59.2846 35.5041 59.1053C34.8618 58.1898 30.7145 53.0936 23.2903 56.785C23.2903 56.785 17.1169 60.8444 18.6092 68.8758C20.1016 76.9071 26.9649 77.4186 27.4171 77.4186C27.8693 77.4186 44.8999 77.2689 44.8999 77.2689C44.8999 77.2689 40.5062 68.2809 37.6255 62.8441C38.7125 64.7763 39.6028 66.2633 40.2179 67.1398C41.7964 69.3894 50.7278 80.4171 66.5582 77.0706C72.2616 88.4294 77.1271 98.375 77.1271 98.375H26.2637C24.953 98.375 5.10527 96.7033 0.798701 73.4847C-3.50787 50.266 10.8386 40.2741 14.3391 38.5254Z" fill="#0049FC"/>
<path d="M54.365 53.2698C55.0072 54.1852 59.1547 59.2814 66.5788 55.59C66.5788 55.59 72.7522 51.5306 71.2599 43.4992C69.7676 35.4679 62.9051 34.9564 62.4529 34.9564C62.0008 34.9564 44.9701 35.1062 44.9701 35.1062C44.9701 35.1062 49.3638 44.0941 52.2445 49.5299C51.1576 47.5988 50.2672 46.1117 49.6521 45.2353C48.0737 42.9856 39.1422 31.958 23.3118 35.3044C17.6084 23.9456 12.7429 14 12.7429 14H63.6082C64.9189 14 84.7666 15.6717 89.0732 38.8903C93.3798 62.109 79.0323 72.101 75.5318 73.8496C72.663 75.3113 69.6532 76.3925 66.5629 77.0716C62.2367 68.456 57.4301 59.0367 53.895 52.5209C54.0766 52.831 54.2396 53.0905 54.365 53.2698Z" fill="#00CBFE"/>
<path opacity="0.5" d="M40.275 67.1377C39.6599 66.2613 38.7696 64.7742 37.6826 62.842C37.0348 61.6196 36.4655 60.5808 36.0377 59.8604C32.5026 53.3478 27.696 43.9254 23.3698 35.3097C39.2002 31.9632 48.1317 42.9909 49.7101 45.2405C50.3252 46.117 51.2155 47.6041 52.3025 49.5352C52.9503 50.7586 53.5196 51.7975 53.9474 52.5178C57.4826 59.0304 62.2891 68.4529 66.6153 77.0685C50.7849 80.415 41.8534 69.3873 40.275 67.1377Z" fill="#00CBFE"/>
<path opacity="0.5" d="M40.275 67.1377C39.6599 66.2613 38.7696 64.7742 37.6826 62.842C37.0348 61.6196 36.4655 60.5808 36.0377 59.8604C32.5026 53.3478 27.696 43.9254 23.3698 35.3097C39.2002 31.9632 48.1317 42.9909 49.7101 45.2405C50.3252 46.117 51.2155 47.6041 52.3025 49.5352C52.9503 50.7586 53.5196 51.7975 53.9474 52.5178C57.4826 59.0304 62.2891 68.4529 66.6153 77.0685C50.7849 80.415 41.8534 69.3873 40.275 67.1377Z" fill="#0049FC"/>
</svg>
